<svg xmlns="http://www.w3.org/2000/svg" viewBox="0 0 500 500"><defs><clipPath id="f"><rect x="38" y="38" width="424" height="424" rx="40"/></clipPath></defs><g clip-path="url(#f)"><rect width="500" height="500" fill="#A5D8FF"/><path d="M110 372 C 160 70, 340 70, 390 372" fill="none" stroke="#000" stroke-opacity=".28" stroke-width="7" stroke-dasharray="16 16" stroke-linecap="round"/><g stroke="#000" stroke-width="14" stroke-linecap="round"><line x1="320.0" y1="150.0" x2="348.0" y2="150.0"/><line x1="299.5" y1="199.5" x2="319.3" y2="219.3"/><line x1="250.0" y1="220.0" x2="250.0" y2="248.0"/><line x1="200.5" y1="199.5" x2="180.7" y2="219.3"/><line x1="180.0" y1="150.0" x2="152.0" y2="150.0"/><line x1="200.5" y1="100.5" x2="180.7" y2="80.7"/><line x1="250.0" y1="80.0" x2="250.0" y2="52.0"/><line x1="299.5" y1="100.5" x2="319.3" y2="80.7"/></g><circle cx="250" cy="150" r="50" fill="#FFC21A" stroke="#000" stroke-width="12"/><path d="M20 380 C 150 338, 330 338, 480 376 L480 480 L20 480 Z" fill="#8FD14F" stroke="#000" stroke-width="12" stroke-linejoin="round"/></g><rect x="38" y="38" width="424" height="424" rx="40" fill="none" stroke="#000" stroke-width="22"/></svg>
